<svg width="181" height="181" viewBox="0 0 181 181" fill="none" xmlns="http://www.w3.org/2000/svg">
<circle cx="90.5" cy="90.5" r="89.5" stroke="#787878" stroke-width="2"/>
<path d="M70.085 54.11V51.905H76.035V77H73.55V54.11H70.085ZM82.8947 64.225C82.8947 60.2117 83.5131 57.0967 84.7497 54.88C85.9864 52.6633 88.2031 51.555 91.3997 51.555C94.5964 51.555 96.8131 52.6633 98.0497 54.88C99.2864 57.0967 99.9047 60.2117 99.9047 64.225C99.9047 68.3083 99.2864 71.47 98.0497 73.71C96.8131 75.95 94.5964 77.07 91.3997 77.07C88.1797 77.07 85.9514 75.95 84.7147 73.71C83.5014 71.47 82.8947 68.3083 82.8947 64.225ZM97.4897 64.225C97.4897 62.055 97.3381 60.2233 97.0347 58.73C96.7314 57.2367 96.1364 56.035 95.2497 55.125C94.3631 54.215 93.0797 53.76 91.3997 53.76C89.7197 53.76 88.4364 54.215 87.5497 55.125C86.6631 56.035 86.0681 57.2367 85.7647 58.73C85.4614 60.2233 85.3097 62.055 85.3097 64.225C85.3097 66.465 85.4614 68.3433 85.7647 69.86C86.0681 71.3533 86.6631 72.555 87.5497 73.465C88.4364 74.375 89.7197 74.83 91.3997 74.83C93.0797 74.83 94.3631 74.375 95.2497 73.465C96.1364 72.555 96.7314 71.3533 97.0347 69.86C97.3381 68.3433 97.4897 66.465 97.4897 64.225Z" fill="#626262"/>
<line x1="46.28" y1="89" x2="134.72" y2="89" stroke="#7EA162" stroke-width="3"/>
<path d="M61.55 110.89L50.21 138.995H47.655L51.365 129.895L43.525 110.89H46.22L52.73 127.2L59.03 110.89H61.55ZM83.5623 119.465C83.5623 120.305 83.5389 120.947 83.4923 121.39H67.6373C67.7073 122.837 68.0573 124.073 68.6873 125.1C69.3173 126.127 70.1456 126.908 71.1723 127.445C72.1989 127.958 73.3189 128.215 74.5323 128.215C76.1189 128.215 77.4489 127.83 78.5223 127.06C79.6189 126.29 80.3423 125.252 80.6923 123.945H83.2823C82.8156 125.812 81.8123 127.34 80.2723 128.53C78.7556 129.697 76.8423 130.28 74.5323 130.28C72.7356 130.28 71.1256 129.883 69.7023 129.09C68.2789 128.273 67.1589 127.13 66.3423 125.66C65.5489 124.167 65.1523 122.428 65.1523 120.445C65.1523 118.462 65.5489 116.723 66.3423 115.23C67.1356 113.737 68.2439 112.593 69.6673 111.8C71.0906 111.007 72.7123 110.61 74.5323 110.61C76.3523 110.61 77.9389 111.007 79.2923 111.8C80.6689 112.593 81.7189 113.667 82.4423 115.02C83.1889 116.35 83.5623 117.832 83.5623 119.465ZM81.0773 119.395C81.1006 117.972 80.8089 116.758 80.2023 115.755C79.6189 114.752 78.8139 113.993 77.7873 113.48C76.7606 112.967 75.6406 112.71 74.4273 112.71C72.6073 112.71 71.0556 113.293 69.7723 114.46C68.4889 115.627 67.7773 117.272 67.6373 119.395H81.0773ZM88.3247 120.41C88.3247 118.45 88.7097 116.735 89.4797 115.265C90.2731 113.772 91.3581 112.628 92.7347 111.835C94.1347 111.018 95.7097 110.61 97.4597 110.61C99.2797 110.61 100.843 111.03 102.15 111.87C103.48 112.71 104.436 113.783 105.02 115.09V110.89H107.47V130H105.02V125.765C104.413 127.072 103.445 128.157 102.115 129.02C100.808 129.86 99.2447 130.28 97.4247 130.28C95.6981 130.28 94.1347 129.872 92.7347 129.055C91.3581 128.238 90.2731 127.083 89.4797 125.59C88.7097 124.097 88.3247 122.37 88.3247 120.41ZM105.02 120.445C105.02 118.905 104.705 117.552 104.075 116.385C103.445 115.218 102.581 114.32 101.485 113.69C100.411 113.06 99.2214 112.745 97.9147 112.745C96.5614 112.745 95.3481 113.048 94.2747 113.655C93.2014 114.262 92.3497 115.148 91.7197 116.315C91.1131 117.458 90.8097 118.823 90.8097 120.41C90.8097 121.973 91.1131 123.35 91.7197 124.54C92.3497 125.707 93.2014 126.605 94.2747 127.235C95.3481 127.842 96.5614 128.145 97.9147 128.145C99.2214 128.145 100.411 127.83 101.485 127.2C102.581 126.57 103.445 125.672 104.075 124.505C104.705 123.338 105.02 121.985 105.02 120.445ZM116.913 114.285C117.45 113.095 118.266 112.173 119.363 111.52C120.483 110.867 121.848 110.54 123.458 110.54V113.095H122.793C121.02 113.095 119.596 113.573 118.523 114.53C117.45 115.487 116.913 117.085 116.913 119.325V130H114.463V110.89H116.913V114.285ZM135.124 130.28C132.93 130.28 131.134 129.778 129.734 128.775C128.357 127.748 127.587 126.36 127.424 124.61H129.944C130.06 125.683 130.562 126.558 131.449 127.235C132.359 127.888 133.572 128.215 135.089 128.215C136.419 128.215 137.457 127.9 138.204 127.27C138.974 126.64 139.359 125.858 139.359 124.925C139.359 124.272 139.149 123.735 138.729 123.315C138.309 122.895 137.772 122.568 137.119 122.335C136.489 122.078 135.625 121.81 134.529 121.53C133.105 121.157 131.95 120.783 131.064 120.41C130.177 120.037 129.419 119.488 128.789 118.765C128.182 118.018 127.879 117.027 127.879 115.79C127.879 114.857 128.159 113.993 128.719 113.2C129.279 112.407 130.072 111.777 131.099 111.31C132.125 110.843 133.292 110.61 134.599 110.61C136.652 110.61 138.309 111.135 139.569 112.185C140.829 113.212 141.505 114.635 141.599 116.455H139.149C139.079 115.335 138.635 114.437 137.819 113.76C137.025 113.06 135.929 112.71 134.529 112.71C133.292 112.71 132.289 113.002 131.519 113.585C130.749 114.168 130.364 114.892 130.364 115.755C130.364 116.502 130.585 117.12 131.029 117.61C131.495 118.077 132.067 118.45 132.744 118.73C133.42 118.987 134.33 119.278 135.474 119.605C136.85 119.978 137.947 120.34 138.764 120.69C139.58 121.04 140.28 121.553 140.864 122.23C141.447 122.907 141.75 123.805 141.774 124.925C141.774 125.952 141.494 126.873 140.934 127.69C140.374 128.483 139.592 129.113 138.589 129.58C137.585 130.047 136.43 130.28 135.124 130.28Z" fill="#5B5B5B"/>
</svg>
