<svg width="85" height="112" viewBox="0 0 85 112" fill="none" xmlns="http://www.w3.org/2000/svg">
<path d="M23 9.00021C27 4.66678 42.1115 9.00232 57 27.5002C73.5 48.0002 76.8603 61.0935 69.5 66.0002C63.5 70.0001 40.5 58.0002 31 44.5002C21.5 31.0002 17 15.5002 23 9.00021ZM4.50002 40.5002C3.16669 34.8336 8.00001 24.5001 32.5 19.0002C61.0742 12.5858 76.8663 19.029 77.5 26.0002C78.5 37.0001 68.5 43.0002 48 48.0002C27.5 53.0002 6.26473 48.0002 4.50002 40.5002Z" stroke="#8E8E8E"/>
<path d="M0 36.5C0 17.3 26.5 0 37 0H0V36.5Z" fill="#A7C69A"/>
<path d="M85 81.0001H47.5C69.5 81.0001 85 50.0001 85 43.0001V81.0001Z" fill="#A7C69A"/>
<path d="M4.795 73.645V74.177H2.814V79H2.205V74.177H0.224V73.645H4.795ZM6.28458 73.645V75.997H9.69358V73.645H10.2956V79H9.69358V76.515H6.28458V79H5.68258V73.645H6.28458ZM15.704 73.645V74.177H12.225V75.997H15.669V76.508H12.225V78.468H15.725V79H11.623V73.645H15.704Z" fill="#8E8E8E"/>
<path d="M10.049 85.758C9.347 85.4893 8.619 85.277 7.865 85.121C7.111 84.9563 6.34833 84.874 5.577 84.874C5.07433 84.874 4.61933 84.913 4.212 84.991C3.80467 85.0603 3.45367 85.173 3.159 85.329C2.873 85.4763 2.652 85.6627 2.496 85.888C2.34 86.1133 2.262 86.382 2.262 86.694C2.262 87.0927 2.41367 87.409 2.717 87.643C3.029 87.877 3.549 88.0763 4.277 88.241C4.54567 88.3017 4.849 88.3623 5.187 88.423C5.525 88.4837 5.876 88.5487 6.24 88.618C6.604 88.6787 6.968 88.7437 7.332 88.813C7.696 88.8823 8.034 88.956 8.346 89.034C8.762 89.138 9.12167 89.2593 9.425 89.398C9.737 89.528 9.99267 89.684 10.192 89.866C10.4 90.0393 10.5517 90.243 10.647 90.477C10.751 90.711 10.803 90.984 10.803 91.296C10.803 92.206 10.4 92.908 9.594 93.402C8.79667 93.8873 7.631 94.13 6.097 94.13C5.75033 94.13 5.36033 94.1127 4.927 94.078C4.49367 94.052 4.043 94.0043 3.575 93.935C3.11567 93.8657 2.652 93.7747 2.184 93.662C1.72467 93.5407 1.3 93.389 0.91 93.207L1.183 92.284C1.56433 92.44 1.97167 92.5787 2.405 92.7C2.847 92.8127 3.28467 92.9037 3.718 92.973C4.16 93.0423 4.589 93.0943 5.005 93.129C5.42967 93.1637 5.81967 93.181 6.175 93.181C7.31033 93.181 8.15967 93.0207 8.723 92.7C9.28633 92.3707 9.568 91.894 9.568 91.27C9.568 91.0793 9.53767 90.906 9.477 90.75C9.41633 90.5853 9.31233 90.4423 9.165 90.321C9.01767 90.1997 8.82267 90.0913 8.58 89.996C8.33733 89.892 8.03833 89.801 7.683 89.723C7.43167 89.671 7.14133 89.619 6.812 89.567C6.48267 89.5063 6.14033 89.45 5.785 89.398C5.43833 89.3373 5.08733 89.2767 4.732 89.216C4.37667 89.1467 4.04733 89.073 3.744 88.995C3.328 88.891 2.951 88.774 2.613 88.644C2.28367 88.5053 2.002 88.3407 1.768 88.15C1.534 87.9593 1.352 87.7383 1.222 87.487C1.092 87.2357 1.027 86.941 1.027 86.603C1.027 86.1523 1.13967 85.7623 1.365 85.433C1.599 85.095 1.91967 84.8177 2.327 84.601C2.743 84.3757 3.237 84.2067 3.809 84.094C4.38967 83.9813 5.02667 83.925 5.72 83.925C6.56067 83.925 7.36667 84.003 8.138 84.159C8.90933 84.315 9.63733 84.5403 10.322 84.835L10.049 85.758ZM24.2114 86.161C23.5874 85.7883 22.92 85.4893 22.2094 85.264C21.4987 85.03 20.7144 84.913 19.8564 84.913C19.1284 84.913 18.448 85.004 17.8154 85.186C17.1827 85.368 16.6324 85.6323 16.1644 85.979C15.705 86.3257 15.341 86.7547 15.0724 87.266C14.8124 87.7687 14.6824 88.3407 14.6824 88.982C14.6824 89.632 14.8167 90.217 15.0854 90.737C15.354 91.2483 15.7224 91.6817 16.1904 92.037C16.6584 92.3923 17.2044 92.6653 17.8284 92.856C18.461 93.0467 19.137 93.142 19.8564 93.142C20.2724 93.142 20.6884 93.1073 21.1044 93.038C21.529 92.9687 21.9277 92.8647 22.3004 92.726C22.6817 92.5787 23.0327 92.3967 23.3534 92.18C23.674 91.9633 23.9427 91.7033 24.1594 91.4L25.0694 92.037C24.818 92.3923 24.506 92.7043 24.1334 92.973C23.7607 93.233 23.349 93.4497 22.8984 93.623C22.4477 93.7963 21.9667 93.922 21.4554 94C20.944 94.0867 20.4284 94.13 19.9084 94.13C18.981 94.13 18.123 94.0087 17.3344 93.766C16.5457 93.5147 15.861 93.1637 15.2804 92.713C14.7084 92.2623 14.2577 91.7207 13.9284 91.088C13.6077 90.4467 13.4474 89.736 13.4474 88.956C13.4474 88.176 13.6077 87.4783 13.9284 86.863C14.2577 86.239 14.7084 85.7103 15.2804 85.277C15.861 84.8437 16.5457 84.51 17.3344 84.276C18.1317 84.042 18.9984 83.925 19.9344 83.925C20.957 83.925 21.8887 84.055 22.7294 84.315C23.57 84.5663 24.311 84.9 24.9524 85.316L24.2114 86.161ZM29.2979 84.055V94H28.0759V84.055H29.2979ZM41.7575 84.055V85.043H34.1785V88.423H41.6925V89.372H34.1785V93.012H41.8095V94H32.9565V84.055H41.7575ZM45.3579 83.925L54.9519 91.881V84.055H56.1349V94.13H55.9139L46.3329 86.187V94H45.1369V83.925H45.3579ZM70.0892 86.161C69.4652 85.7883 68.7979 85.4893 68.0872 85.264C67.3765 85.03 66.5922 84.913 65.7342 84.913C65.0062 84.913 64.3259 85.004 63.6932 85.186C63.0605 85.368 62.5102 85.6323 62.0422 85.979C61.5829 86.3257 61.2189 86.7547 60.9502 87.266C60.6902 87.7687 60.5602 88.3407 60.5602 88.982C60.5602 89.632 60.6945 90.217 60.9632 90.737C61.2319 91.2483 61.6002 91.6817 62.0682 92.037C62.5362 92.3923 63.0822 92.6653 63.7062 92.856C64.3389 93.0467 65.0149 93.142 65.7342 93.142C66.1502 93.142 66.5662 93.1073 66.9822 93.038C67.4069 92.9687 67.8055 92.8647 68.1782 92.726C68.5595 92.5787 68.9105 92.3967 69.2312 92.18C69.5519 91.9633 69.8205 91.7033 70.0372 91.4L70.9472 92.037C70.6959 92.3923 70.3839 92.7043 70.0112 92.973C69.6385 93.233 69.2269 93.4497 68.7762 93.623C68.3255 93.7963 67.8445 93.922 67.3332 94C66.8219 94.0867 66.3062 94.13 65.7862 94.13C64.8589 94.13 64.0009 94.0087 63.2122 93.766C62.4235 93.5147 61.7389 93.1637 61.1582 92.713C60.5862 92.2623 60.1355 91.7207 59.8062 91.088C59.4855 90.4467 59.3252 89.736 59.3252 88.956C59.3252 88.176 59.4855 87.4783 59.8062 86.863C60.1355 86.239 60.5862 85.7103 61.1582 85.277C61.7389 84.8437 62.4235 84.51 63.2122 84.276C64.0095 84.042 64.8762 83.925 65.8122 83.925C66.8349 83.925 67.7665 84.055 68.6072 84.315C69.4479 84.5663 70.1889 84.9 70.8302 85.316L70.0892 86.161ZM82.7548 84.055V85.043H75.1758V88.423H82.6898V89.372H75.1758V93.012H82.8068V94H73.9538V84.055H82.7548ZM10.049 101.758C9.347 101.489 8.619 101.277 7.865 101.121C7.111 100.956 6.34833 100.874 5.577 100.874C5.07433 100.874 4.61933 100.913 4.212 100.991C3.80467 101.06 3.45367 101.173 3.159 101.329C2.873 101.476 2.652 101.663 2.496 101.888C2.34 102.113 2.262 102.382 2.262 102.694C2.262 103.093 2.41367 103.409 2.717 103.643C3.029 103.877 3.549 104.076 4.277 104.241C4.54567 104.302 4.849 104.362 5.187 104.423C5.525 104.484 5.876 104.549 6.24 104.618C6.604 104.679 6.968 104.744 7.332 104.813C7.696 104.882 8.034 104.956 8.346 105.034C8.762 105.138 9.12167 105.259 9.425 105.398C9.737 105.528 9.99267 105.684 10.192 105.866C10.4 106.039 10.5517 106.243 10.647 106.477C10.751 106.711 10.803 106.984 10.803 107.296C10.803 108.206 10.4 108.908 9.594 109.402C8.79667 109.887 7.631 110.13 6.097 110.13C5.75033 110.13 5.36033 110.113 4.927 110.078C4.49367 110.052 4.043 110.004 3.575 109.935C3.11567 109.866 2.652 109.775 2.184 109.662C1.72467 109.541 1.3 109.389 0.91 109.207L1.183 108.284C1.56433 108.44 1.97167 108.579 2.405 108.7C2.847 108.813 3.28467 108.904 3.718 108.973C4.16 109.042 4.589 109.094 5.005 109.129C5.42967 109.164 5.81967 109.181 6.175 109.181C7.31033 109.181 8.15967 109.021 8.723 108.7C9.28633 108.371 9.568 107.894 9.568 107.27C9.568 107.079 9.53767 106.906 9.477 106.75C9.41633 106.585 9.31233 106.442 9.165 106.321C9.01767 106.2 8.82267 106.091 8.58 105.996C8.33733 105.892 8.03833 105.801 7.683 105.723C7.43167 105.671 7.14133 105.619 6.812 105.567C6.48267 105.506 6.14033 105.45 5.785 105.398C5.43833 105.337 5.08733 105.277 4.732 105.216C4.37667 105.147 4.04733 105.073 3.744 104.995C3.328 104.891 2.951 104.774 2.613 104.644C2.28367 104.505 2.002 104.341 1.768 104.15C1.534 103.959 1.352 103.738 1.222 103.487C1.092 103.236 1.027 102.941 1.027 102.603C1.027 102.152 1.13967 101.762 1.365 101.433C1.599 101.095 1.91967 100.818 2.327 100.601C2.743 100.376 3.237 100.207 3.809 100.094C4.38967 99.9813 5.02667 99.925 5.72 99.925C6.56067 99.925 7.36667 100.003 8.138 100.159C8.90933 100.315 9.63733 100.54 10.322 100.835L10.049 101.758ZM24.7964 102.161C24.1724 101.788 23.505 101.489 22.7944 101.264C22.0837 101.03 21.2994 100.913 20.4414 100.913C19.7134 100.913 19.033 101.004 18.4004 101.186C17.7677 101.368 17.2174 101.632 16.7494 101.979C16.29 102.326 15.926 102.755 15.6574 103.266C15.3974 103.769 15.2674 104.341 15.2674 104.982C15.2674 105.632 15.4017 106.217 15.6704 106.737C15.939 107.248 16.3074 107.682 16.7754 108.037C17.2434 108.392 17.7894 108.665 18.4134 108.856C19.046 109.047 19.722 109.142 20.4414 109.142C20.8574 109.142 21.2734 109.107 21.6894 109.038C22.114 108.969 22.5127 108.865 22.8854 108.726C23.2667 108.579 23.6177 108.397 23.9384 108.18C24.259 107.963 24.5277 107.703 24.7444 107.4L25.6544 108.037C25.403 108.392 25.091 108.704 24.7184 108.973C24.3457 109.233 23.934 109.45 23.4834 109.623C23.0327 109.796 22.5517 109.922 22.0404 110C21.529 110.087 21.0134 110.13 20.4934 110.13C19.566 110.13 18.708 110.009 17.9194 109.766C17.1307 109.515 16.446 109.164 15.8654 108.713C15.2934 108.262 14.8427 107.721 14.5134 107.088C14.1927 106.447 14.0324 105.736 14.0324 104.956C14.0324 104.176 14.1927 103.478 14.5134 102.863C14.8427 102.239 15.2934 101.71 15.8654 101.277C16.446 100.844 17.1307 100.51 17.9194 100.276C18.7167 100.042 19.5834 99.925 20.5194 99.925C21.542 99.925 22.4737 100.055 23.3144 100.315C24.155 100.566 24.896 100.9 25.5374 101.316L24.7964 102.161ZM30.4679 100.055V104.41H37.9949V100.055H39.2039V110H37.9949V105.398H30.4679V110H29.2459V100.055H30.4679ZM49.2702 99.925C50.2842 99.925 51.1812 100.068 51.9612 100.354C52.7499 100.64 53.4085 101.021 53.9372 101.498C54.4745 101.975 54.8819 102.521 55.1592 103.136C55.4365 103.751 55.5752 104.384 55.5752 105.034C55.5752 105.684 55.4365 106.317 55.1592 106.932C54.8819 107.539 54.4745 108.08 53.9372 108.557C53.4085 109.034 52.7499 109.415 51.9612 109.701C51.1812 109.987 50.2842 110.13 49.2702 110.13C48.2389 110.13 47.3332 109.987 46.5532 109.701C45.7732 109.406 45.1145 109.021 44.5772 108.544C44.0485 108.067 43.6499 107.521 43.3812 106.906C43.1125 106.291 42.9782 105.662 42.9782 105.021C42.9782 104.371 43.1169 103.738 43.3942 103.123C43.6715 102.508 44.0745 101.966 44.6032 101.498C45.1405 101.021 45.7992 100.64 46.5792 100.354C47.3592 100.068 48.2562 99.925 49.2702 99.925ZM49.2832 100.913C48.4945 100.913 47.7839 101.021 47.1512 101.238C46.5272 101.455 45.9942 101.754 45.5522 102.135C45.1189 102.508 44.7852 102.945 44.5512 103.448C44.3172 103.942 44.2002 104.471 44.2002 105.034C44.2002 105.597 44.3172 106.13 44.5512 106.633C44.7852 107.127 45.1189 107.56 45.5522 107.933C45.9942 108.306 46.5272 108.6 47.1512 108.817C47.7839 109.034 48.4945 109.142 49.2832 109.142C50.0632 109.142 50.7652 109.038 51.3892 108.83C52.0132 108.613 52.5462 108.319 52.9882 107.946C53.4302 107.573 53.7682 107.14 54.0022 106.646C54.2362 106.143 54.3532 105.606 54.3532 105.034C54.3532 104.462 54.2362 103.925 54.0022 103.422C53.7682 102.919 53.4302 102.486 52.9882 102.122C52.5462 101.749 52.0132 101.455 51.3892 101.238C50.7652 101.021 50.0632 100.913 49.2832 100.913ZM65.184 99.925C66.198 99.925 67.095 100.068 67.875 100.354C68.6637 100.64 69.3224 101.021 69.851 101.498C70.3884 101.975 70.7957 102.521 71.073 103.136C71.3504 103.751 71.489 104.384 71.489 105.034C71.489 105.684 71.3504 106.317 71.073 106.932C70.7957 107.539 70.3884 108.08 69.851 108.557C69.3224 109.034 68.6637 109.415 67.875 109.701C67.095 109.987 66.198 110.13 65.184 110.13C64.1527 110.13 63.247 109.987 62.467 109.701C61.687 109.406 61.0284 109.021 60.491 108.544C59.9624 108.067 59.5637 107.521 59.295 106.906C59.0264 106.291 58.892 105.662 58.892 105.021C58.892 104.371 59.0307 103.738 59.308 103.123C59.5854 102.508 59.9884 101.966 60.517 101.498C61.0544 101.021 61.713 100.64 62.493 100.354C63.273 100.068 64.17 99.925 65.184 99.925ZM65.197 100.913C64.4084 100.913 63.6977 101.021 63.065 101.238C62.441 101.455 61.908 101.754 61.466 102.135C61.0327 102.508 60.699 102.945 60.465 103.448C60.231 103.942 60.114 104.471 60.114 105.034C60.114 105.597 60.231 106.13 60.465 106.633C60.699 107.127 61.0327 107.56 61.466 107.933C61.908 108.306 62.441 108.6 63.065 108.817C63.6977 109.034 64.4084 109.142 65.197 109.142C65.977 109.142 66.679 109.038 67.303 108.83C67.927 108.613 68.46 108.319 68.902 107.946C69.344 107.573 69.682 107.14 69.916 106.646C70.15 106.143 70.267 105.606 70.267 105.034C70.267 104.462 70.15 103.925 69.916 103.422C69.682 102.919 69.344 102.486 68.902 102.122C68.46 101.749 67.927 101.455 67.303 101.238C66.679 101.021 65.977 100.913 65.197 100.913ZM76.4829 100.055V109.012H83.2949V110H75.2609V100.055H76.4829Z" fill="#8E8E8E"/>
</svg>
